<svg id="Grupo_20" data-name="Grupo 20" xmlns="http://www.w3.org/2000/svg" xmlns:xlink="http://www.w3.org/1999/xlink" width="132.495" height="56.419" viewBox="0 0 132.495 56.419">
  <defs>
    <clipPath id="clip-path">
      <rect id="Rectángulo_1013" data-name="Rectángulo 1013" width="132.495" height="56.419" fill="none"/>
    </clipPath>
  </defs>
  <g id="Grupo_19" data-name="Grupo 19" clip-path="url(#clip-path)">
    <path id="Trazado_33" data-name="Trazado 33" d="M414.314,41.946c0-.022.008-.044.012-.065a29.149,29.149,0,0,0,.459-5.759,13.27,13.27,0,0,1,6.677-6.73,5.877,5.877,0,0,0,6.094,3.583,6.606,6.606,0,0,0,1.735-.375c1.7-.628,2.566-1.827,2.157-2.985a3.868,3.868,0,0,0-.883-1.453,2.972,2.972,0,0,0,.765-.921,3.222,3.222,0,0,0-.133-3.013,2.745,2.745,0,0,0-1.825-1.574,2.886,2.886,0,0,0-.819-.079,2.408,2.408,0,0,0,0-1.223,2,2,0,0,0-1.383-1.333c-1.385-.446-3.381.28-4.748,1.726a6.385,6.385,0,0,0-1.539,5.837,13.809,13.809,0,0,0-6.4,5.288c-.046-.281-.1-.56-.151-.836A17.722,17.722,0,0,0,411.6,25.4l8.035-6.423h0a2.29,2.29,0,0,0,.358-3.218l-6.02-7.531a2.289,2.289,0,0,0-3.218-.359l-5.979,4.78A22.314,22.314,0,0,1,407.155,8.2c2.048-2.992,1.288-6.065-.467-7.438a3.677,3.677,0,0,0-5.2.757c-1.458,1.637-1.844,4.632-1.148,8.9.19,1.168.435,2.266.666,3.182-.843-.427-1.86-.908-2.958-1.351-4.011-1.619-7.017-1.9-8.935-.839a3.677,3.677,0,0,0-1.884,4.909,5.018,5.018,0,0,0,5.063,2.6,7.246,7.246,0,0,0,2.09-.5,22.32,22.32,0,0,1,4.864-1.343l-5.964,4.767a2.292,2.292,0,0,0-.359,3.218l6.02,7.531a2.275,2.275,0,0,0,1.535.846,2.327,2.327,0,0,0,.445.007,2.273,2.273,0,0,0,1.238-.494l7.952-6.357a16.076,16.076,0,0,1,2.4,5.974,26.942,26.942,0,0,1-.947,12.767c-.913-2.551-3.159-5.727-8.671-6.7,0,0,.684,8.566,7.559,9.993a54.294,54.294,0,0,1-2.9,6.286.948.948,0,1,0,1.671.9,52.73,52.73,0,0,0,4.056-9.56c3.651,1.363,13.036,3.438,20.807-7.042,0,0-12.269-4.964-19.764,2.749m9.485-18.9a3.911,3.911,0,0,1,2.338-1.26,1.19,1.19,0,0,1,.45.036.507.507,0,0,1,.147.068,3.37,3.37,0,0,1-.872,1.791.948.948,0,0,0,1.29,1.369,2.721,2.721,0,0,1,1.767-.557c.148.037.368.136.573.559a1.491,1.491,0,0,1,.162,1.3,2.34,2.34,0,0,1-1.5.857.964.964,0,0,0-.815,1.054.93.93,0,0,0,1,.83h0a1.451,1.451,0,0,1,1.3,1.086,3.426,3.426,0,0,1-2.532.921,4.025,4.025,0,0,1-4.035-2.779c-1.075-2.784,0-4.5.728-5.278m-11.861-13.7a.394.394,0,0,1,.553.062l2.573,3.219-8.378,6.545-2.744-3.432ZM402.9,2.777a2.355,2.355,0,0,1,1.507-.885,1.568,1.568,0,0,1,1.112.361c1.075.842,1.466,2.836.07,4.874a23.724,23.724,0,0,0-2.863,5.575c-.813-3.388-1.461-8.088.173-9.924m-9.223,13.872c-2.3.913-4.155.093-4.739-1.142-.438-.925-.041-1.814,1.088-2.439a3.474,3.474,0,0,1,1.407-.386c2.343-.191,5.764,1.148,8.311,2.4a23.725,23.725,0,0,0-6.068,1.566m.724,7.22a.394.394,0,0,1,.062-.553l8-6.393,2.731,3.416-8.379,6.545Zm6.573,7.592a.393.393,0,0,1-.553-.062L398,28.364l8.379-6.545,2.6,3.249Zm6.894-10.809,8.379-6.545,2.263,2.831a.394.394,0,0,1-.062.553l-8,6.393Z" transform="translate(-301.584 0)" fill="#ffffff"/>
    <path id="Trazado_34" data-name="Trazado 34" d="M479.561,163.392a1.175,1.175,0,1,1-.9-1.394,1.175,1.175,0,0,1,.9,1.394" transform="translate(-372.02 -126.262)" fill="#ffffff"/>
    <path id="Trazado_35" data-name="Trazado 35" d="M461.279,158.456a1.175,1.175,0,1,1-.9-1.394,1.175,1.175,0,0,1,.9,1.394" transform="translate(-357.769 -122.414)" fill="#ffffff"/>
    <path id="Trazado_36" data-name="Trazado 36" d="M19.178,68.984v17.59H15.65V75.134L10.937,86.575H8.266L3.553,75.134v11.44H0V68.984H4.171l6.323,14.065L16.817,68.984Z" transform="translate(0 -48.985)" fill="#ffffff"/>
  </g>
</svg>
